<?xml version="1.0" encoding="UTF-8" standalone="no"?>
<!DOCTYPE svg PUBLIC "-//W3C//DTD SVG 1.1//EN"
 "http://www.w3.org/Graphics/SVG/1.1/DTD/svg11.dtd">
<!-- Generated by graphviz version 3.0.0 (20220226.1711)
 -->
<!-- Title: Tree Pages: 1 -->
<svg width="953pt" height="581pt"
 viewBox="0.00 0.00 952.50 581.00" xmlns="http://www.w3.org/2000/svg" xmlns:xlink="http://www.w3.org/1999/xlink">
<g id="graph0" class="graph" transform="scale(1 1) rotate(0) translate(4 577)">
<title>Tree</title>
<polygon fill="white" stroke="transparent" points="-4,4 -4,-577 948.5,-577 948.5,4 -4,4"/>
<!-- 0 -->
<g id="node1" class="node">
<title>0</title>
<polygon fill="none" stroke="black" points="772,-573 654,-573 654,-505 772,-505 772,-573"/>
<text text-anchor="middle" x="713" y="-557.8" font-family="Times New Roman,serif" font-size="14.00">不错 &lt;= 0.5</text>
<text text-anchor="middle" x="713" y="-542.8" font-family="Times New Roman,serif" font-size="14.00">gini = 0.5</text>
<text text-anchor="middle" x="713" y="-527.8" font-family="Times New Roman,serif" font-size="14.00">samples = 1571</text>
<text text-anchor="middle" x="713" y="-512.8" font-family="Times New Roman,serif" font-size="14.00">value = [790, 781]</text>
</g>
<!-- 1 -->
<g id="node2" class="node">
<title>1</title>
<polygon fill="none" stroke="black" points="661,-469 543,-469 543,-401 661,-401 661,-469"/>
<text text-anchor="middle" x="602" y="-453.8" font-family="Times New Roman,serif" font-size="14.00">很快 &lt;= 0.5</text>
<text text-anchor="middle" x="602" y="-438.8" font-family="Times New Roman,serif" font-size="14.00">gini = 0.49</text>
<text text-anchor="middle" x="602" y="-423.8" font-family="Times New Roman,serif" font-size="14.00">samples = 1352</text>
<text text-anchor="middle" x="602" y="-408.8" font-family="Times New Roman,serif" font-size="14.00">value = [773, 579]</text>
</g>
<!-- 0&#45;&gt;1 -->
<g id="edge1" class="edge">
<title>0&#45;&gt;1</title>
<path fill="none" stroke="black" d="M676.96,-504.88C666.98,-495.71 656.03,-485.65 645.66,-476.12"/>
<polygon fill="black" stroke="black" points="647.97,-473.49 638.24,-469.3 643.23,-478.64 647.97,-473.49"/>
<text text-anchor="middle" x="639.29" y="-490.58" font-family="Times New Roman,serif" font-size="14.00">True</text>
</g>
<!-- 18 -->
<g id="node19" class="node">
<title>18</title>
<polygon fill="none" stroke="black" points="835.5,-469 724.5,-469 724.5,-401 835.5,-401 835.5,-469"/>
<text text-anchor="middle" x="780" y="-453.8" font-family="Times New Roman,serif" font-size="14.00">本来 &lt;= 0.5</text>
<text text-anchor="middle" x="780" y="-438.8" font-family="Times New Roman,serif" font-size="14.00">gini = 0.143</text>
<text text-anchor="middle" x="780" y="-423.8" font-family="Times New Roman,serif" font-size="14.00">samples = 219</text>
<text text-anchor="middle" x="780" y="-408.8" font-family="Times New Roman,serif" font-size="14.00">value = [17, 202]</text>
</g>
<!-- 0&#45;&gt;18 -->
<g id="edge18" class="edge">
<title>0&#45;&gt;18</title>
<path fill="none" stroke="black" d="M734.75,-504.88C740.43,-496.24 746.62,-486.82 752.55,-477.79"/>
<polygon fill="black" stroke="black" points="755.56,-479.58 758.13,-469.3 749.71,-475.74 755.56,-479.58"/>
<text text-anchor="middle" x="763.2" y="-490.08" font-family="Times New Roman,serif" font-size="14.00">False</text>
</g>
<!-- 2 -->
<g id="node3" class="node">
<title>2</title>
<polygon fill="none" stroke="black" points="491,-365 373,-365 373,-297 491,-297 491,-365"/>
<text text-anchor="middle" x="432" y="-349.8" font-family="Times New Roman,serif" font-size="14.00">信赖 &lt;= 0.5</text>
<text text-anchor="middle" x="432" y="-334.8" font-family="Times New Roman,serif" font-size="14.00">gini = 0.48</text>
<text text-anchor="middle" x="432" y="-319.8" font-family="Times New Roman,serif" font-size="14.00">samples = 1280</text>
<text text-anchor="middle" x="432" y="-304.8" font-family="Times New Roman,serif" font-size="14.00">value = [768, 512]</text>
</g>
<!-- 1&#45;&gt;2 -->
<g id="edge2" class="edge">
<title>1&#45;&gt;2</title>
<path fill="none" stroke="black" d="M546.81,-400.88C530.54,-391.12 512.61,-380.37 495.85,-370.31"/>
<polygon fill="black" stroke="black" points="497.58,-367.27 487.21,-365.12 493.98,-373.27 497.58,-367.27"/>
</g>
<!-- 11 -->
<g id="node12" class="node">
<title>11</title>
<polygon fill="none" stroke="black" points="651,-365 553,-365 553,-297 651,-297 651,-365"/>
<text text-anchor="middle" x="602" y="-349.8" font-family="Times New Roman,serif" font-size="14.00">情况 &lt;= 0.5</text>
<text text-anchor="middle" x="602" y="-334.8" font-family="Times New Roman,serif" font-size="14.00">gini = 0.129</text>
<text text-anchor="middle" x="602" y="-319.8" font-family="Times New Roman,serif" font-size="14.00">samples = 72</text>
<text text-anchor="middle" x="602" y="-304.8" font-family="Times New Roman,serif" font-size="14.00">value = [5, 67]</text>
</g>
<!-- 1&#45;&gt;11 -->
<g id="edge11" class="edge">
<title>1&#45;&gt;11</title>
<path fill="none" stroke="black" d="M602,-400.88C602,-392.78 602,-383.98 602,-375.47"/>
<polygon fill="black" stroke="black" points="605.5,-375.3 602,-365.3 598.5,-375.3 605.5,-375.3"/>
</g>
<!-- 3 -->
<g id="node4" class="node">
<title>3</title>
<polygon fill="none" stroke="black" points="365,-261 247,-261 247,-193 365,-193 365,-261"/>
<text text-anchor="middle" x="306" y="-245.8" font-family="Times New Roman,serif" font-size="14.00">实惠 &lt;= 0.5</text>
<text text-anchor="middle" x="306" y="-230.8" font-family="Times New Roman,serif" font-size="14.00">gini = 0.469</text>
<text text-anchor="middle" x="306" y="-215.8" font-family="Times New Roman,serif" font-size="14.00">samples = 1229</text>
<text text-anchor="middle" x="306" y="-200.8" font-family="Times New Roman,serif" font-size="14.00">value = [768, 461]</text>
</g>
<!-- 2&#45;&gt;3 -->
<g id="edge3" class="edge">
<title>2&#45;&gt;3</title>
<path fill="none" stroke="black" d="M391.09,-296.88C379.65,-287.62 367.09,-277.45 355.22,-267.85"/>
<polygon fill="black" stroke="black" points="357.11,-264.87 347.13,-261.3 352.7,-270.31 357.11,-264.87"/>
</g>
<!-- 10 -->
<g id="node11" class="node">
<title>10</title>
<polygon fill="none" stroke="black" points="481,-253.5 383,-253.5 383,-200.5 481,-200.5 481,-253.5"/>
<text text-anchor="middle" x="432" y="-238.3" font-family="Times New Roman,serif" font-size="14.00">gini = 0.0</text>
<text text-anchor="middle" x="432" y="-223.3" font-family="Times New Roman,serif" font-size="14.00">samples = 51</text>
<text text-anchor="middle" x="432" y="-208.3" font-family="Times New Roman,serif" font-size="14.00">value = [0, 51]</text>
</g>
<!-- 2&#45;&gt;10 -->
<g id="edge10" class="edge">
<title>2&#45;&gt;10</title>
<path fill="none" stroke="black" d="M432,-296.88C432,-286.33 432,-274.6 432,-263.85"/>
<polygon fill="black" stroke="black" points="435.5,-263.52 432,-253.52 428.5,-263.52 435.5,-263.52"/>
</g>
<!-- 4 -->
<g id="node5" class="node">
<title>4</title>
<polygon fill="none" stroke="black" points="241,-157 123,-157 123,-89 241,-89 241,-157"/>
<text text-anchor="middle" x="182" y="-141.8" font-family="Times New Roman,serif" font-size="14.00">放心 &lt;= 0.5</text>
<text text-anchor="middle" x="182" y="-126.8" font-family="Times New Roman,serif" font-size="14.00">gini = 0.463</text>
<text text-anchor="middle" x="182" y="-111.8" font-family="Times New Roman,serif" font-size="14.00">samples = 1207</text>
<text text-anchor="middle" x="182" y="-96.8" font-family="Times New Roman,serif" font-size="14.00">value = [767, 440]</text>
</g>
<!-- 3&#45;&gt;4 -->
<g id="edge4" class="edge">
<title>3&#45;&gt;4</title>
<path fill="none" stroke="black" d="M265.74,-192.88C254.48,-183.62 242.12,-173.45 230.44,-163.85"/>
<polygon fill="black" stroke="black" points="232.43,-160.95 222.48,-157.3 227.98,-166.36 232.43,-160.95"/>
</g>
<!-- 7 -->
<g id="node8" class="node">
<title>7</title>
<polygon fill="none" stroke="black" points="357,-157 259,-157 259,-89 357,-89 357,-157"/>
<text text-anchor="middle" x="308" y="-141.8" font-family="Times New Roman,serif" font-size="14.00">就敢 &lt;= 0.5</text>
<text text-anchor="middle" x="308" y="-126.8" font-family="Times New Roman,serif" font-size="14.00">gini = 0.087</text>
<text text-anchor="middle" x="308" y="-111.8" font-family="Times New Roman,serif" font-size="14.00">samples = 22</text>
<text text-anchor="middle" x="308" y="-96.8" font-family="Times New Roman,serif" font-size="14.00">value = [1, 21]</text>
</g>
<!-- 3&#45;&gt;7 -->
<g id="edge7" class="edge">
<title>3&#45;&gt;7</title>
<path fill="none" stroke="black" d="M306.65,-192.88C306.81,-184.78 306.98,-175.98 307.15,-167.47"/>
<polygon fill="black" stroke="black" points="310.65,-167.37 307.35,-157.3 303.65,-167.23 310.65,-167.37"/>
</g>
<!-- 5 -->
<g id="node6" class="node">
<title>5</title>
<polygon fill="none" stroke="black" points="118,-53 0,-53 0,0 118,0 118,-53"/>
<text text-anchor="middle" x="59" y="-37.8" font-family="Times New Roman,serif" font-size="14.00">gini = 0.459</text>
<text text-anchor="middle" x="59" y="-22.8" font-family="Times New Roman,serif" font-size="14.00">samples = 1191</text>
<text text-anchor="middle" x="59" y="-7.8" font-family="Times New Roman,serif" font-size="14.00">value = [767, 424]</text>
</g>
<!-- 4&#45;&gt;5 -->
<g id="edge5" class="edge">
<title>4&#45;&gt;5</title>
<path fill="none" stroke="black" d="M138.98,-88.95C126.48,-79.34 112.85,-68.87 100.45,-59.34"/>
<polygon fill="black" stroke="black" points="102.56,-56.55 92.5,-53.24 98.3,-62.1 102.56,-56.55"/>
</g>
<!-- 6 -->
<g id="node7" class="node">
<title>6</title>
<polygon fill="none" stroke="black" points="234,-53 136,-53 136,0 234,0 234,-53"/>
<text text-anchor="middle" x="185" y="-37.8" font-family="Times New Roman,serif" font-size="14.00">gini = 0.0</text>
<text text-anchor="middle" x="185" y="-22.8" font-family="Times New Roman,serif" font-size="14.00">samples = 16</text>
<text text-anchor="middle" x="185" y="-7.8" font-family="Times New Roman,serif" font-size="14.00">value = [0, 16]</text>
</g>
<!-- 4&#45;&gt;6 -->
<g id="edge6" class="edge">
<title>4&#45;&gt;6</title>
<path fill="none" stroke="black" d="M183.05,-88.95C183.31,-80.72 183.59,-71.85 183.86,-63.48"/>
<polygon fill="black" stroke="black" points="187.36,-63.34 184.18,-53.24 180.37,-63.12 187.36,-63.34"/>
</g>
<!-- 8 -->
<g id="node9" class="node">
<title>8</title>
<polygon fill="none" stroke="black" points="355,-53 257,-53 257,0 355,0 355,-53"/>
<text text-anchor="middle" x="306" y="-37.8" font-family="Times New Roman,serif" font-size="14.00">gini = 0.0</text>
<text text-anchor="middle" x="306" y="-22.8" font-family="Times New Roman,serif" font-size="14.00">samples = 21</text>
<text text-anchor="middle" x="306" y="-7.8" font-family="Times New Roman,serif" font-size="14.00">value = [0, 21]</text>
</g>
<!-- 7&#45;&gt;8 -->
<g id="edge8" class="edge">
<title>7&#45;&gt;8</title>
<path fill="none" stroke="black" d="M307.3,-88.95C307.13,-80.72 306.94,-71.85 306.76,-63.48"/>
<polygon fill="black" stroke="black" points="310.26,-63.16 306.54,-53.24 303.26,-63.31 310.26,-63.16"/>
</g>
<!-- 9 -->
<g id="node10" class="node">
<title>9</title>
<polygon fill="none" stroke="black" points="464.5,-53 373.5,-53 373.5,0 464.5,0 464.5,-53"/>
<text text-anchor="middle" x="419" y="-37.8" font-family="Times New Roman,serif" font-size="14.00">gini = 0.0</text>
<text text-anchor="middle" x="419" y="-22.8" font-family="Times New Roman,serif" font-size="14.00">samples = 1</text>
<text text-anchor="middle" x="419" y="-7.8" font-family="Times New Roman,serif" font-size="14.00">value = [1, 0]</text>
</g>
<!-- 7&#45;&gt;9 -->
<g id="edge9" class="edge">
<title>7&#45;&gt;9</title>
<path fill="none" stroke="black" d="M346.82,-88.95C357.89,-79.53 369.93,-69.27 380.95,-59.89"/>
<polygon fill="black" stroke="black" points="383.42,-62.38 388.77,-53.24 378.89,-57.05 383.42,-62.38"/>
</g>
<!-- 12 -->
<g id="node13" class="node">
<title>12</title>
<polygon fill="none" stroke="black" points="597,-261 499,-261 499,-193 597,-193 597,-261"/>
<text text-anchor="middle" x="548" y="-245.8" font-family="Times New Roman,serif" font-size="14.00">两根 &lt;= 0.5</text>
<text text-anchor="middle" x="548" y="-230.8" font-family="Times New Roman,serif" font-size="14.00">gini = 0.082</text>
<text text-anchor="middle" x="548" y="-215.8" font-family="Times New Roman,serif" font-size="14.00">samples = 70</text>
<text text-anchor="middle" x="548" y="-200.8" font-family="Times New Roman,serif" font-size="14.00">value = [3, 67]</text>
</g>
<!-- 11&#45;&gt;12 -->
<g id="edge12" class="edge">
<title>11&#45;&gt;12</title>
<path fill="none" stroke="black" d="M584.47,-296.88C579.99,-288.42 575.11,-279.21 570.42,-270.35"/>
<polygon fill="black" stroke="black" points="573.4,-268.5 565.63,-261.3 567.21,-271.77 573.4,-268.5"/>
</g>
<!-- 17 -->
<g id="node18" class="node">
<title>17</title>
<polygon fill="none" stroke="black" points="706.5,-253.5 615.5,-253.5 615.5,-200.5 706.5,-200.5 706.5,-253.5"/>
<text text-anchor="middle" x="661" y="-238.3" font-family="Times New Roman,serif" font-size="14.00">gini = 0.0</text>
<text text-anchor="middle" x="661" y="-223.3" font-family="Times New Roman,serif" font-size="14.00">samples = 2</text>
<text text-anchor="middle" x="661" y="-208.3" font-family="Times New Roman,serif" font-size="14.00">value = [2, 0]</text>
</g>
<!-- 11&#45;&gt;17 -->
<g id="edge17" class="edge">
<title>11&#45;&gt;17</title>
<path fill="none" stroke="black" d="M621.16,-296.88C627.58,-285.78 634.76,-273.37 641.23,-262.18"/>
<polygon fill="black" stroke="black" points="644.26,-263.93 646.24,-253.52 638.2,-260.42 644.26,-263.93"/>
</g>
<!-- 13 -->
<g id="node14" class="node">
<title>13</title>
<polygon fill="none" stroke="black" points="591,-157 493,-157 493,-89 591,-89 591,-157"/>
<text text-anchor="middle" x="542" y="-141.8" font-family="Times New Roman,serif" font-size="14.00">收钱 &lt;= 0.5</text>
<text text-anchor="middle" x="542" y="-126.8" font-family="Times New Roman,serif" font-size="14.00">gini = 0.056</text>
<text text-anchor="middle" x="542" y="-111.8" font-family="Times New Roman,serif" font-size="14.00">samples = 69</text>
<text text-anchor="middle" x="542" y="-96.8" font-family="Times New Roman,serif" font-size="14.00">value = [2, 67]</text>
</g>
<!-- 12&#45;&gt;13 -->
<g id="edge13" class="edge">
<title>12&#45;&gt;13</title>
<path fill="none" stroke="black" d="M546.05,-192.88C545.58,-184.78 545.06,-175.98 544.56,-167.47"/>
<polygon fill="black" stroke="black" points="548.04,-167.08 543.96,-157.3 541.05,-167.49 548.04,-167.08"/>
</g>
<!-- 16 -->
<g id="node17" class="node">
<title>16</title>
<polygon fill="none" stroke="black" points="700.5,-149.5 609.5,-149.5 609.5,-96.5 700.5,-96.5 700.5,-149.5"/>
<text text-anchor="middle" x="655" y="-134.3" font-family="Times New Roman,serif" font-size="14.00">gini = 0.0</text>
<text text-anchor="middle" x="655" y="-119.3" font-family="Times New Roman,serif" font-size="14.00">samples = 1</text>
<text text-anchor="middle" x="655" y="-104.3" font-family="Times New Roman,serif" font-size="14.00">value = [1, 0]</text>
</g>
<!-- 12&#45;&gt;16 -->
<g id="edge16" class="edge">
<title>12&#45;&gt;16</title>
<path fill="none" stroke="black" d="M582.74,-192.88C594.97,-181.23 608.7,-168.14 620.87,-156.53"/>
<polygon fill="black" stroke="black" points="623.41,-158.95 628.23,-149.52 618.58,-153.89 623.41,-158.95"/>
</g>
<!-- 14 -->
<g id="node15" class="node">
<title>14</title>
<polygon fill="none" stroke="black" points="589,-53 491,-53 491,0 589,0 589,-53"/>
<text text-anchor="middle" x="540" y="-37.8" font-family="Times New Roman,serif" font-size="14.00">gini = 0.029</text>
<text text-anchor="middle" x="540" y="-22.8" font-family="Times New Roman,serif" font-size="14.00">samples = 68</text>
<text text-anchor="middle" x="540" y="-7.8" font-family="Times New Roman,serif" font-size="14.00">value = [1, 67]</text>
</g>
<!-- 13&#45;&gt;14 -->
<g id="edge14" class="edge">
<title>13&#45;&gt;14</title>
<path fill="none" stroke="black" d="M541.3,-88.95C541.13,-80.72 540.94,-71.85 540.76,-63.48"/>
<polygon fill="black" stroke="black" points="544.26,-63.16 540.54,-53.24 537.26,-63.31 544.26,-63.16"/>
</g>
<!-- 15 -->
<g id="node16" class="node">
<title>15</title>
<polygon fill="none" stroke="black" points="698.5,-53 607.5,-53 607.5,0 698.5,0 698.5,-53"/>
<text text-anchor="middle" x="653" y="-37.8" font-family="Times New Roman,serif" font-size="14.00">gini = 0.0</text>
<text text-anchor="middle" x="653" y="-22.8" font-family="Times New Roman,serif" font-size="14.00">samples = 1</text>
<text text-anchor="middle" x="653" y="-7.8" font-family="Times New Roman,serif" font-size="14.00">value = [1, 0]</text>
</g>
<!-- 13&#45;&gt;15 -->
<g id="edge15" class="edge">
<title>13&#45;&gt;15</title>
<path fill="none" stroke="black" d="M580.82,-88.95C591.89,-79.53 603.93,-69.27 614.95,-59.89"/>
<polygon fill="black" stroke="black" points="617.42,-62.38 622.77,-53.24 612.89,-57.05 617.42,-62.38"/>
</g>
<!-- 19 -->
<g id="node20" class="node">
<title>19</title>
<polygon fill="none" stroke="black" points="835.5,-365 724.5,-365 724.5,-297 835.5,-297 835.5,-365"/>
<text text-anchor="middle" x="780" y="-349.8" font-family="Times New Roman,serif" font-size="14.00">师父 &lt;= 0.5</text>
<text text-anchor="middle" x="780" y="-334.8" font-family="Times New Roman,serif" font-size="14.00">gini = 0.114</text>
<text text-anchor="middle" x="780" y="-319.8" font-family="Times New Roman,serif" font-size="14.00">samples = 215</text>
<text text-anchor="middle" x="780" y="-304.8" font-family="Times New Roman,serif" font-size="14.00">value = [13, 202]</text>
</g>
<!-- 18&#45;&gt;19 -->
<g id="edge19" class="edge">
<title>18&#45;&gt;19</title>
<path fill="none" stroke="black" d="M780,-400.88C780,-392.78 780,-383.98 780,-375.47"/>
<polygon fill="black" stroke="black" points="783.5,-375.3 780,-365.3 776.5,-375.3 783.5,-375.3"/>
</g>
<!-- 26 -->
<g id="node27" class="node">
<title>26</title>
<polygon fill="none" stroke="black" points="944.5,-357.5 853.5,-357.5 853.5,-304.5 944.5,-304.5 944.5,-357.5"/>
<text text-anchor="middle" x="899" y="-342.3" font-family="Times New Roman,serif" font-size="14.00">gini = 0.0</text>
<text text-anchor="middle" x="899" y="-327.3" font-family="Times New Roman,serif" font-size="14.00">samples = 4</text>
<text text-anchor="middle" x="899" y="-312.3" font-family="Times New Roman,serif" font-size="14.00">value = [4, 0]</text>
</g>
<!-- 18&#45;&gt;26 -->
<g id="edge26" class="edge">
<title>18&#45;&gt;26</title>
<path fill="none" stroke="black" d="M818.64,-400.88C832.36,-389.12 847.79,-375.89 861.43,-364.2"/>
<polygon fill="black" stroke="black" points="863.91,-366.69 869.23,-357.52 859.36,-361.37 863.91,-366.69"/>
</g>
<!-- 20 -->
<g id="node21" class="node">
<title>20</title>
<polygon fill="none" stroke="black" points="835.5,-261 724.5,-261 724.5,-193 835.5,-193 835.5,-261"/>
<text text-anchor="middle" x="780" y="-245.8" font-family="Times New Roman,serif" font-size="14.00">条款 &lt;= 0.5</text>
<text text-anchor="middle" x="780" y="-230.8" font-family="Times New Roman,serif" font-size="14.00">gini = 0.106</text>
<text text-anchor="middle" x="780" y="-215.8" font-family="Times New Roman,serif" font-size="14.00">samples = 214</text>
<text text-anchor="middle" x="780" y="-200.8" font-family="Times New Roman,serif" font-size="14.00">value = [12, 202]</text>
</g>
<!-- 19&#45;&gt;20 -->
<g id="edge20" class="edge">
<title>19&#45;&gt;20</title>
<path fill="none" stroke="black" d="M780,-296.88C780,-288.78 780,-279.98 780,-271.47"/>
<polygon fill="black" stroke="black" points="783.5,-271.3 780,-261.3 776.5,-271.3 783.5,-271.3"/>
</g>
<!-- 25 -->
<g id="node26" class="node">
<title>25</title>
<polygon fill="none" stroke="black" points="944.5,-253.5 853.5,-253.5 853.5,-200.5 944.5,-200.5 944.5,-253.5"/>
<text text-anchor="middle" x="899" y="-238.3" font-family="Times New Roman,serif" font-size="14.00">gini = 0.0</text>
<text text-anchor="middle" x="899" y="-223.3" font-family="Times New Roman,serif" font-size="14.00">samples = 1</text>
<text text-anchor="middle" x="899" y="-208.3" font-family="Times New Roman,serif" font-size="14.00">value = [1, 0]</text>
</g>
<!-- 19&#45;&gt;25 -->
<g id="edge25" class="edge">
<title>19&#45;&gt;25</title>
<path fill="none" stroke="black" d="M818.64,-296.88C832.36,-285.12 847.79,-271.89 861.43,-260.2"/>
<polygon fill="black" stroke="black" points="863.91,-262.69 869.23,-253.52 859.36,-257.37 863.91,-262.69"/>
</g>
<!-- 21 -->
<g id="node22" class="node">
<title>21</title>
<polygon fill="none" stroke="black" points="832.5,-157 721.5,-157 721.5,-89 832.5,-89 832.5,-157"/>
<text text-anchor="middle" x="777" y="-141.8" font-family="Times New Roman,serif" font-size="14.00">问好 &lt;= 0.5</text>
<text text-anchor="middle" x="777" y="-126.8" font-family="Times New Roman,serif" font-size="14.00">gini = 0.098</text>
<text text-anchor="middle" x="777" y="-111.8" font-family="Times New Roman,serif" font-size="14.00">samples = 213</text>
<text text-anchor="middle" x="777" y="-96.8" font-family="Times New Roman,serif" font-size="14.00">value = [11, 202]</text>
</g>
<!-- 20&#45;&gt;21 -->
<g id="edge21" class="edge">
<title>20&#45;&gt;21</title>
<path fill="none" stroke="black" d="M779.03,-192.88C778.79,-184.78 778.53,-175.98 778.28,-167.47"/>
<polygon fill="black" stroke="black" points="781.77,-167.19 777.98,-157.3 774.77,-167.4 781.77,-167.19"/>
</g>
<!-- 24 -->
<g id="node25" class="node">
<title>24</title>
<polygon fill="none" stroke="black" points="941.5,-149.5 850.5,-149.5 850.5,-96.5 941.5,-96.5 941.5,-149.5"/>
<text text-anchor="middle" x="896" y="-134.3" font-family="Times New Roman,serif" font-size="14.00">gini = 0.0</text>
<text text-anchor="middle" x="896" y="-119.3" font-family="Times New Roman,serif" font-size="14.00">samples = 1</text>
<text text-anchor="middle" x="896" y="-104.3" font-family="Times New Roman,serif" font-size="14.00">value = [1, 0]</text>
</g>
<!-- 20&#45;&gt;24 -->
<g id="edge24" class="edge">
<title>20&#45;&gt;24</title>
<path fill="none" stroke="black" d="M817.66,-192.88C831.04,-181.12 846.08,-167.89 859.38,-156.2"/>
<polygon fill="black" stroke="black" points="861.78,-158.75 866.98,-149.52 857.16,-153.49 861.78,-158.75"/>
</g>
<!-- 22 -->
<g id="node23" class="node">
<title>22</title>
<polygon fill="none" stroke="black" points="831.5,-53 720.5,-53 720.5,0 831.5,0 831.5,-53"/>
<text text-anchor="middle" x="776" y="-37.8" font-family="Times New Roman,serif" font-size="14.00">gini = 0.09</text>
<text text-anchor="middle" x="776" y="-22.8" font-family="Times New Roman,serif" font-size="14.00">samples = 212</text>
<text text-anchor="middle" x="776" y="-7.8" font-family="Times New Roman,serif" font-size="14.00">value = [10, 202]</text>
</g>
<!-- 21&#45;&gt;22 -->
<g id="edge22" class="edge">
<title>21&#45;&gt;22</title>
<path fill="none" stroke="black" d="M776.65,-88.95C776.56,-80.72 776.47,-71.85 776.38,-63.48"/>
<polygon fill="black" stroke="black" points="779.88,-63.2 776.27,-53.24 772.88,-63.27 779.88,-63.2"/>
</g>
<!-- 23 -->
<g id="node24" class="node">
<title>23</title>
<polygon fill="none" stroke="black" points="940.5,-53 849.5,-53 849.5,0 940.5,0 940.5,-53"/>
<text text-anchor="middle" x="895" y="-37.8" font-family="Times New Roman,serif" font-size="14.00">gini = 0.0</text>
<text text-anchor="middle" x="895" y="-22.8" font-family="Times New Roman,serif" font-size="14.00">samples = 1</text>
<text text-anchor="middle" x="895" y="-7.8" font-family="Times New Roman,serif" font-size="14.00">value = [1, 0]</text>
</g>
<!-- 21&#45;&gt;23 -->
<g id="edge23" class="edge">
<title>21&#45;&gt;23</title>
<path fill="none" stroke="black" d="M818.27,-88.95C830.15,-79.43 843.09,-69.07 854.9,-59.62"/>
<polygon fill="black" stroke="black" points="857.25,-62.22 862.86,-53.24 852.87,-56.76 857.25,-62.22"/>
</g>
</g>
</svg>
